<?xml version="1.0" encoding="utf-8"?>
<!-- Generator: Adobe Illustrator 24.3.0, SVG Export Plug-In . SVG Version: 6.00 Build 0)  -->
<svg version="1.1" id="Layer_1" xmlns="http://www.w3.org/2000/svg" xmlns:xlink="http://www.w3.org/1999/xlink" x="0px" y="0px"
	 viewBox="0 0 500 500" style="enable-background:new 0 0 500 500;" xml:space="preserve">
<style type="text/css">
	.st0{fill:#D9DADC;}
	.st1{clip-path:url(#SVGID_2_);}
	.st2{opacity:0.1;}
</style>
<rect class="st0" width="500" height="500"/>
<g>
	<g>
		<defs>
			<rect id="SVGID_1_" width="500" height="500"/>
		</defs>
		<clipPath id="SVGID_2_">
			<use xlink:href="#SVGID_1_"  style="overflow:visible;"/>
		</clipPath>
		<g class="st1">
			<path class="st2" d="M419.7,283.3L419.7,283.3c37.6,37.7,37.6,98.7,0,136.4c-18.1,18.1-42.6,28.2-68.1,28.2
				c-8.9,0-16.1,7.2-16.1,16.1c0,8.9,7.2,16.1,16.1,16.1c71,0,128.6-57.5,128.6-128.5c0-28.5-9.5-56.3-27-78.8l57.5-57.5
				c6.1-6.5,5.7-16.7-0.8-22.8c-6.2-5.8-15.8-5.8-22,0l-68.2,68.2C413.4,266.9,413.4,277.1,419.7,283.3z"/>
			<path class="st2" d="M559.4,265.4c-3.2-8.3-12.4-12.4-20.7-9.3s-12.4,12.4-9.3,20.7c0.1,0.3,0.2,0.6,0.4,0.9
				c40.7,98.5-6.2,211.3-104.7,251.9c-47.2,19.5-100.1,19.5-147.3,0c-8.1-3.6-17.6,0-21.2,8c-3.6,8.1,0,17.6,8,21.2
				c0.3,0.1,0.6,0.2,0.9,0.4c114.8,47.6,246.4-6.9,293.9-121.7C582.2,382.5,582.2,320.5,559.4,265.4z"/>
			<path class="st2" d="M283.3,419.7L283.3,419.7c-37.6-37.7-37.6-98.7,0-136.4c18.1-18.1,42.6-28.2,68.1-28.2
				c8.9,0,16.1-7.2,16.1-16.1c0-8.9-7.2-16.1-16.1-16.1c-71,0-128.6,57.5-128.6,128.5c0,28.5,9.5,56.3,27,78.8l-57.5,57.5
				c-6.1,6.5-5.7,16.7,0.8,22.8c6.2,5.8,15.8,5.8,22,0l68.2-68.2C289.6,436.1,289.6,425.9,283.3,419.7z"/>
			<path class="st2" d="M143.6,437.6c3.2,8.3,12.4,12.4,20.7,9.3c8.3-3.2,12.4-12.4,9.3-20.7c-0.1-0.3-0.2-0.6-0.4-0.9
				C132.6,326.8,179.5,214,278,173.3c47.2-19.5,100.1-19.5,147.3,0c8.1,3.6,17.6,0,21.2-8c3.6-8.1,0-17.6-8-21.2
				c-0.3-0.1-0.6-0.2-0.9-0.4c-114.8-47.6-246.4,6.9-293.9,121.7C120.8,320.5,120.8,382.5,143.6,437.6z"/>
		</g>
	</g>
</g>
</svg>
